{"accessors" : [{"bufferView" : 0, "byteOffset" : 0, "componentType" : 5123, "count" : 56256, "type" : "SCALAR", "max" : [37503], "min" : [0]}, {"bufferView" : 1, "byteOffset" : 0, "componentType" : 5126, "count" : 37504, "type" : "VEC3", "max" : [353.9118347167969, 77.98855590820312, 135.2921905517578], "min" : [-353.9118347167969, -1332.7264404296875, -177.2559814453125], "name" : "POSITION"}, {"bufferView" : 1, "byteOffset" : 12, "componentType" : 5126, "count" : 37504, "type" : "VEC3", "max" : [0.9999973773956299, 0.9981135725975037, 0.9999934434890747], "min" : [-0.9999973773956299, -0.9998987913131714, -0.9999884366989136], "name" : "NORMAL"}, {"bufferView" : 1, "byteOffset" : 24, "componentType" : 5126, "count" : 37504, "type" : "VEC2", "max" : [0.8750001192092896, 1], "min" : [0.1250000149011612, -1.1920928955078125E-07], "name" : "TEXCOORD_0"}], "asset" : {"generator" : "Aspose.3D 25.3.0", "version" : "2.0"}, "buffers" : [{"uri" : "data:application/octet-stream;base64,", "byteLength" : 1312648}], "bufferViews" : [{"buffer" : 0, "byteOffset" : 0, "byteLength" : 112512, "target" : 34963}, {"buffer" : 0, "byteOffset" : 112516, "byteLength" : 1200128, "byteStride" : 32, "target" : 34962}], "meshes" : [{"primitives" : [{"attributes" : {"POSITION" : 1, "NORMAL" : 2, "TEXCOORD_0" : 3}, "indices" : 0, "mode" : 4}], "name" : "Cube.003"}], "nodes" : [{"matrix" : [0.12768732011318207, 0, 0, 0, 0, 0.12768732011318207, 0, 0, 0, 0, 0.09762346744537354, 0, 0, 169.83372497558594, 0, 1], "mesh" : 0, "name" : "BaseMesh"}], "scene" : 0, "scenes" : [{"nodes" : [0]}]}