{
  "accessors": [
    {
      "bufferView": 1,
      "componentType": 5126,
      "count": 32759,
      "max": [
        0.8301585912704468,
        0.8432160019874573,
        0.15265542268753052
      ],
      "min": [
        -0.8301582336425781,
        -0.8494043350219727,
        -0.16559073328971863
      ],
      "type": "VEC3"
    },
    {
      "bufferView": 1,
      "byteOffset": 393108,
      "componentType": 5126,
      "count": 32759,
      "max": [
        0.9999978542327881,
        0.9999982118606567,
        0.9999785423278809
      ],
      "min": [
        -0.9999952912330627,
        -0.9999933242797852,
        -0.9999848008155823
      ],
      "type": "VEC3"
    },
    {
      "bufferView": 2,
      "componentType": 5126,
      "count": 32759,
      "max": [
        0.7607843279838562,
        0.3176470696926117,
        0.1921568661928177,
        1.0
      ],
      "min": [
        0.7607843279838562,
        0.3176470696926117,
        0.1921568661928177,
        1.0
      ],
      "type": "VEC4"
    },
    {
      "bufferView": 0,
      "componentType": 5125,
      "count": 195912,
      "type": "SCALAR"
    }
  ],
  "asset": {
    "extras": {
      "author": "Dragoon54 (https://sketchfab.com/Dragoon54)",
      "license": "SKETCHFAB Standard (https://sketchfab.com/licenses)",
      "source": "https://sketchfab.com/3d-models/human-male-d8453a4e8c9346b79c8a31f82619718c",
      "title": "human male"
    },
    "generator": "Sketchfab-16.21.0",
    "version": "2.0"
  },
  "bufferViews": [
    {
      "buffer": 0,
      "byteLength": 783648,
      "name": "floatBufferViews",
      "target": 34963
    },
    {
      "buffer": 0,
      "byteLength": 786216,
      "byteOffset": 783648,
      "byteStride": 12,
      "name": "floatBufferViews",
      "target": 34962
    },
    {
      "buffer": 0,
      "byteLength": 524144,
      "byteOffset": 1569864,
      "byteStride": 16,
      "name": "floatBufferViews",
      "target": 34962
    }
  ],
  "buffers": [
    {
      "byteLength": 2094008,
      "uri": "scene.bin"
    }
  ],
  "materials": [
    {
      "doubleSided": true,
      "name": "material_0",
      "pbrMetallicRoughness": {
        "metallicFactor": 0.0,
        "roughnessFactor": 0.25
      }
    }
  ],
  "meshes": [
    {
      "name": "Object_0",
      "primitives": [
        {
          "attributes": {
            "COLOR_0": 2,
            "NORMAL": 1,
            "POSITION": 0
          },
          "indices": 3,
          "material": 0,
          "mode": 4
        }
      ]
    }
  ],
  "nodes": [
    {
      "children": [
        1
      ],
      "matrix": [
        1.0,
        0.0,
        0.0,
        0.0,
        0.0,
        2.220446049250313e-16,
        -1.0,
        0.0,
        0.0,
        1.0,
        2.220446049250313e-16,
        0.0,
        0.0,
        0.0,
        0.0,
        1.0
      ],
      "name": "Sketchfab_model"
    },
    {
      "children": [
        2
      ],
      "name": "root"
    },
    {
      "children": [
        3
      ],
      "matrix": [
        1.0,
        0.0,
        0.0,
        0.0,
        0.0,
        2.220446049250313e-16,
        1.0,
        0.0,
        0.0,
        -1.0,
        2.220446049250313e-16,
        0.0,
        0.0,
        0.0,
        0.0,
        1.0
      ],
      "name": "GLTF_SceneRootNode"
    },
    {
      "children": [
        4
      ],
      "name": "Mesh 1_0"
    },
    {
      "mesh": 0,
      "name": "Object_4"
    }
  ],
  "scene": 0,
  "scenes": [
    {
      "name": "Sketchfab_Scene",
      "nodes": [
        0
      ]
    }
  ]
}
